<svg width="57" height="50" viewBox="0 0 57 50" fill="none" xmlns="http://www.w3.org/2000/svg">
<path d="M4.40098 38.7261C1.97359 38.7261 0 36.7525 0 34.3251V30.8058C0 28.3784 1.97359 26.4048 4.40098 26.4048C4.88788 26.4048 5.28022 26.7995 5.28022 27.284V37.8445C5.28258 38.3314 4.88786 38.7261 4.40098 38.7261ZM3.52174 28.3145C2.49831 28.6785 1.76084 29.6571 1.76084 30.8034V34.3228C1.76084 35.4691 2.49589 36.45 3.52174 36.8117V28.3145Z" fill="white"/>
<path d="M8.0316 40.4845H6.05094C4.65641 40.4845 3.51953 39.35 3.51953 37.9531V27.173C3.51953 25.7785 4.65405 24.6416 6.05094 24.6416H8.0316C9.42613 24.6416 10.563 25.7761 10.563 27.173V37.9531C10.563 39.35 9.42613 40.4845 8.0316 40.4845ZM6.05094 26.4025C5.6255 26.4025 5.28043 26.7476 5.28043 27.173V37.9531C5.28043 38.3785 5.62551 38.7236 6.05094 38.7236H8.0316C8.45705 38.7236 8.80211 38.3785 8.80211 37.9531V27.173C8.80211 26.7476 8.45703 26.4025 8.0316 26.4025H6.05094Z" fill="white"/>
<path d="M51.9276 38.7261C51.4407 38.7261 51.0483 38.3314 51.0483 37.8469V27.2865C51.0483 26.7996 51.4431 26.4072 51.9276 26.4072C54.355 26.4072 56.3286 28.3808 56.3286 30.8082V34.3276C56.3286 36.7503 54.3526 38.7261 51.9276 38.7261ZM52.8068 28.3146V36.8141C53.8302 36.4501 54.5677 35.4715 54.5677 34.3252V30.8058C54.5677 29.6572 53.8327 28.6786 52.8068 28.3146Z" fill="white"/>
<path d="M50.2777 40.4845H48.297C46.9025 40.4845 45.7656 39.35 45.7656 37.9531V27.173C45.7656 25.7785 46.9001 24.6416 48.297 24.6416H50.2777C51.6722 24.6416 52.8091 25.7761 52.8091 27.173V37.9531C52.8067 39.35 51.6722 40.4845 50.2777 40.4845ZM48.297 26.4025C47.8716 26.4025 47.5265 26.7476 47.5265 27.173V37.9531C47.5265 38.3785 47.8716 38.7236 48.297 38.7236H50.2777C50.7031 38.7236 51.0482 38.3785 51.0482 37.9531V27.173C51.0482 26.7476 50.7031 26.4025 50.2777 26.4025H48.297Z" fill="white"/>
<path d="M52.8074 28.2741C52.3205 28.2741 51.9282 27.8793 51.9282 27.3948V25.5228C51.9282 19.1743 49.4559 13.2083 44.9674 8.71979C40.4812 4.23131 34.5134 1.75896 28.1643 1.75896C15.0607 1.75896 4.40106 12.4186 4.40106 25.5222V27.3942C4.40106 27.8811 4.00634 28.2735 3.52182 28.2735C3.03492 28.2735 2.64258 27.8787 2.64258 27.3942V25.5222C2.64258 18.7054 5.29688 12.2958 10.1183 7.47393C14.9377 2.6546 21.348 0 28.1642 0C34.9834 0 41.393 2.6543 46.2125 7.47575C51.0318 12.2951 53.6882 18.703 53.6882 25.5216V27.3936C53.6882 27.8781 53.2935 28.2728 52.8066 28.2728L52.8074 28.2741Z" fill="white"/>
<path d="M49.2875 26.4019C48.8006 26.4019 48.4082 26.0072 48.4082 25.5227C48.4082 20.1148 46.3023 15.033 42.478 11.2089C38.6537 7.38702 33.5718 5.28104 28.1642 5.28104C17.0036 5.28104 7.92254 14.3621 7.92254 25.5227C7.92254 26.0096 7.52783 26.402 7.0433 26.402C6.5564 26.402 6.16406 26.0073 6.16406 25.5227C6.16406 13.3903 16.0341 3.52026 28.1665 3.52026C34.0448 3.52026 39.5686 5.80819 43.7237 9.96556C47.8789 14.1208 50.1666 19.6444 50.1666 25.5227C50.1666 26.0096 49.772 26.4019 49.2875 26.4019Z" fill="white"/>
<path d="M30.2534 42.134H25.9635C25.4766 42.134 25.0843 41.7393 25.0843 41.2548V39.5979C24.3374 39.3757 23.6189 39.0732 22.9358 38.6926L21.7871 39.8413C21.6217 40.0068 21.3971 40.0989 21.1655 40.0989C20.9315 40.0989 20.7093 40.0068 20.5439 39.8413L17.5091 36.8065C17.1664 36.4638 17.1664 35.9059 17.5091 35.5609L18.6814 34.3885C18.3103 33.7031 18.0149 32.9798 17.7998 32.2306L16.1737 32.2329C15.6868 32.2329 15.2944 31.8382 15.2944 31.3537V27.0638C15.2944 26.5769 15.6892 26.1846 16.1737 26.1846H17.8306C18.0527 25.4377 18.3553 24.7191 18.7358 24.0361L17.5871 22.8874C17.4217 22.7219 17.3295 22.4974 17.3295 22.2658C17.3295 22.0318 17.4217 21.8096 17.5871 21.6442L20.622 18.6093C20.9647 18.2666 21.5225 18.2666 21.8676 18.6093L23.0399 19.7817C23.7254 19.4106 24.4486 19.1151 25.1979 18.9001L25.1932 17.2716C25.1932 16.7847 25.5879 16.3923 26.0724 16.3923H30.3623C30.8492 16.3923 31.2415 16.7871 31.2415 17.2716V18.9285C31.9884 19.1506 32.707 19.4532 33.39 19.8337L34.5387 18.685C34.8838 18.3423 35.4393 18.3423 35.7843 18.685L38.8192 21.7199C39.1619 22.0626 39.1619 22.6204 38.8192 22.9655L37.6468 24.1378C38.0179 24.8233 38.3134 25.5465 38.5284 26.2958L40.1546 26.2934C40.6415 26.2934 41.0338 26.6881 41.0338 27.1727V31.4625C41.0338 31.9494 40.6391 32.3418 40.1546 32.3418H38.4977C38.2755 33.0887 37.973 33.8072 37.5924 34.4903L38.7411 35.639C39.0838 35.9817 39.0838 36.5395 38.7411 36.8846L35.7063 39.9194C35.3612 40.2621 34.8057 40.2621 34.4607 39.9194L33.2883 38.7471C32.6029 39.1182 31.8796 39.4136 31.1304 39.6287V41.2548C31.1351 41.7417 30.7403 42.134 30.2534 42.134ZM26.8428 40.3755H29.3742V38.9432C29.3742 38.5272 29.6649 38.1703 30.0691 38.0828C31.0972 37.8606 32.0734 37.4636 32.9645 36.9011C33.3119 36.6812 33.7657 36.7332 34.0565 37.024L35.087 38.0545L36.8762 36.2652L35.8622 35.2513C35.5691 34.9582 35.5195 34.4996 35.7464 34.1522C36.3184 33.2659 36.7273 32.2968 36.9613 31.2686C37.0511 30.8668 37.408 30.5832 37.8193 30.5832H39.2752V28.0518H37.8429C37.4269 28.0518 37.07 27.7611 36.9825 27.3569C36.7603 26.3288 36.3633 25.3526 35.8007 24.4615C35.5809 24.114 35.6329 23.6602 35.9236 23.3695L36.9541 22.339L35.1649 20.5498L34.1509 21.5638C33.8578 21.8569 33.3993 21.9065 33.0519 21.6796C32.1655 21.1076 31.1941 20.6987 30.1683 20.4647C29.7665 20.3749 29.4829 20.018 29.4829 19.6067L29.4852 18.1531H26.9538V19.5855C26.9538 20.0015 26.6631 20.3583 26.259 20.4458C25.2308 20.668 24.2546 21.0651 23.3635 21.6276C23.0161 21.8474 22.5623 21.7954 22.2715 21.5047L21.241 20.4742L19.4518 22.2634L20.4658 23.2774C20.7589 23.5705 20.8085 24.029 20.5816 24.3765C20.0096 25.2628 19.6007 26.2342 19.3668 27.26C19.2769 27.6618 18.92 27.9455 18.5087 27.9455L17.0528 27.9431V30.4745H18.4852C18.9011 30.4745 19.258 30.7652 19.3455 31.1694C19.5677 32.1975 19.9647 33.1737 20.5273 34.0648C20.7471 34.4123 20.6951 34.8661 20.4044 35.1568L19.3739 36.1873L21.1631 37.9765L22.1771 36.9625C22.4702 36.6694 22.9287 36.6198 23.2762 36.8467C24.1625 37.4187 25.1339 37.8276 26.1597 38.0616C26.5615 38.1514 26.8451 38.5083 26.8451 38.9196V40.3755L26.8428 40.3755Z" fill="white"/>
<path d="M28.1642 35.5895C24.6756 35.5895 21.8394 32.7508 21.8394 29.2646C21.8394 25.7759 24.678 22.9397 28.1642 22.9397C31.6529 22.9397 34.4891 25.7784 34.4891 29.2646C34.4891 32.7508 31.6528 35.5895 28.1642 35.5895ZM28.1642 24.6981C25.647 24.6981 23.5978 26.7473 23.5978 29.2645C23.5978 31.7818 25.647 33.831 28.1642 33.831C30.6815 33.831 32.7307 31.7818 32.7307 29.2645C32.7307 26.7473 30.6815 24.6981 28.1642 24.6981Z" fill="white"/>
<path d="M39.7149 48.4613H38.5047C38.0178 48.4613 37.6255 48.0665 37.6255 47.582C37.6255 47.0951 38.0202 46.7028 38.5047 46.7028H39.7149C43.9765 46.7028 47.5809 43.6561 48.2852 39.4606C48.3656 38.9808 48.8194 38.657 49.2992 38.7373C49.779 38.8177 50.1028 39.2715 50.0225 39.7513C49.6183 42.1598 48.3679 44.3651 46.5007 45.9606C44.6122 47.5726 42.2015 48.4613 39.7149 48.4613Z" fill="white"/>
<path d="M37.1858 49.9999H32.6761C31.4636 49.9999 30.4756 49.012 30.4756 47.7995V47.5796C30.4756 46.3671 31.4636 45.3792 32.6761 45.3792H37.1858C38.3983 45.3792 39.3863 46.3671 39.3863 47.5796V47.7995C39.3863 49.0143 38.3983 49.9999 37.1858 49.9999ZM32.6737 47.14C32.435 47.14 32.2341 47.3409 32.2341 47.5796V47.7994C32.2341 48.0381 32.435 48.239 32.6737 48.239H37.1834C37.4221 48.239 37.6231 48.0381 37.6231 47.7994V47.5796C37.6231 47.3409 37.4221 47.14 37.1834 47.14H32.6737Z" fill="white"/>
</svg>
