<svg width="142" height="34" viewBox="0 0 142 34" fill="none" xmlns="http://www.w3.org/2000/svg">
<path d="M41.25 24.225H51.4092V21.165H44.8608V9.63898H41.25V24.225Z" fill="black"/>
<path d="M57.4281 22.185C55.9797 22.185 55.2249 20.9202 55.2249 19.023C55.2249 17.1258 55.9797 15.8406 57.4281 15.8406C58.8765 15.8406 59.6517 17.1258 59.6517 19.023C59.6517 20.9202 58.8765 22.185 57.4281 22.185ZM57.4485 24.5514C60.8145 24.5514 63.0177 22.1646 63.0177 19.023C63.0177 15.8814 60.8145 13.4946 57.4485 13.4946C54.1029 13.4946 51.8589 15.8814 51.8589 19.023C51.8589 22.1646 54.1029 24.5514 57.4485 24.5514Z" fill="black"/>
<path d="M68.8439 27.8358C70.3943 27.8358 71.7611 27.489 72.6791 26.673C73.5155 25.9182 74.0663 24.7758 74.0663 23.205V13.7802H70.8839V14.9022H70.8431C70.2311 14.025 69.2927 13.4742 67.9055 13.4742C65.3147 13.4742 63.5195 15.6366 63.5195 18.6966C63.5195 21.8994 65.7023 23.6538 68.0483 23.6538C69.3131 23.6538 70.1087 23.1438 70.7207 22.4502H70.8023V23.4906C70.8023 24.7554 70.2107 25.4898 68.8031 25.4898C67.7015 25.4898 67.1507 25.0206 66.9671 24.4698H63.7439C64.0703 26.6526 65.9675 27.8358 68.8439 27.8358ZM68.8235 21.1854C67.5791 21.1854 66.7631 20.1654 66.7631 18.5946C66.7631 17.0034 67.5791 15.9834 68.8235 15.9834C70.2107 15.9834 70.9451 17.1666 70.9451 18.5742C70.9451 20.043 70.2719 21.1854 68.8235 21.1854Z" fill="black"/>
<path d="M80.61 22.185C79.1616 22.185 78.4068 20.9202 78.4068 19.023C78.4068 17.1258 79.1616 15.8406 80.61 15.8406C82.0584 15.8406 82.8336 17.1258 82.8336 19.023C82.8336 20.9202 82.0584 22.185 80.61 22.185ZM80.6304 24.5514C83.9964 24.5514 86.1998 22.1646 86.1998 19.023C86.1998 15.8814 83.9964 13.4946 80.6304 13.4946C77.2848 13.4946 75.0408 15.8814 75.0408 19.023C75.0408 22.1646 77.2848 24.5514 80.6304 24.5514Z" fill="black"/>
<path d="M87.1707 24.225H90.4959V13.7802H87.1707V24.225ZM87.1707 12.3318H90.4959V9.63898H87.1707V12.3318Z" fill="black"/>
<path d="M91.9382 27.6726H95.2634V23.1438H95.3042C95.957 24.021 96.9158 24.5514 98.2622 24.5514C100.996 24.5514 102.811 22.389 102.811 19.0026C102.811 15.861 101.118 13.4742 98.3438 13.4742C96.9158 13.4742 95.8958 14.1066 95.1818 15.045H95.1206V13.7802H91.9382V27.6726ZM97.4054 21.981C95.9774 21.981 95.1614 20.8182 95.1614 19.125C95.1614 17.4318 95.8958 16.1466 97.3442 16.1466C98.7722 16.1466 99.4454 17.3298 99.4454 19.125C99.4454 20.8998 98.6702 21.981 97.4054 21.981Z" fill="black"/>
<path d="M108.226 24.5514C110.959 24.5514 112.979 23.3682 112.979 21.0834C112.979 18.411 110.817 17.9418 108.981 17.6358C107.655 17.391 106.471 17.289 106.471 16.5546C106.471 15.9018 107.104 15.5958 107.92 15.5958C108.838 15.5958 109.47 15.8814 109.593 16.8198H112.653C112.489 14.7594 110.898 13.4742 107.94 13.4742C105.472 13.4742 103.432 14.6166 103.432 16.8198C103.432 19.2678 105.37 19.7574 107.185 20.0634C108.573 20.3082 109.837 20.4102 109.837 21.3486C109.837 22.0218 109.205 22.389 108.205 22.389C107.104 22.389 106.41 21.879 106.288 20.8386H103.146C103.248 23.1438 105.166 24.5514 108.226 24.5514Z" fill="black"/>
<path d="M117.495 24.531C118.944 24.531 119.862 23.9598 120.616 22.9398H120.678V24.225H123.86V13.7802H120.535V19.6146C120.535 20.859 119.841 21.7158 118.699 21.7158C117.638 21.7158 117.128 21.0834 117.128 19.941V13.7802H113.823V20.6346C113.823 22.9602 115.088 24.531 117.495 24.531Z" fill="black"/>
<path d="M125.307 24.225H128.632V18.3702C128.632 17.1258 129.244 16.2486 130.284 16.2486C131.284 16.2486 131.753 16.9014 131.753 18.0234V24.225H135.078V18.3702C135.078 17.1258 135.67 16.2486 136.731 16.2486C137.73 16.2486 138.199 16.9014 138.199 18.0234V24.225H141.525V17.4318C141.525 15.0858 140.341 13.4742 137.975 13.4742C136.629 13.4742 135.507 14.0454 134.691 15.3102H134.65C134.119 14.1882 133.079 13.4742 131.712 13.4742C130.203 13.4742 129.203 14.1882 128.55 15.2694H128.489V13.7802H125.307V24.225Z" fill="black"/>
<path fill-rule="evenodd" clip-rule="evenodd" d="M7.26982 3.05819C6.05376 3.90849 4.95412 4.91383 3.99952 6.04554C7.90043 5.68338 12.8564 6.27474 18.6102 9.15168C24.7545 12.2238 29.7022 12.3276 33.1456 11.6634C32.8331 10.7175 32.4397 9.80831 31.9738 8.94403C28.0321 9.35976 22.9789 8.80947 17.0897 5.86498C13.3501 3.99515 10.0536 3.22491 7.26982 3.05819ZM29.6713 5.66665C26.5585 2.18875 22.0349 0 17 0C15.5214 0 14.0868 0.188791 12.7191 0.543558C14.5714 1.04897 16.5392 1.78839 18.6102 2.82393C22.9219 4.97975 26.6444 5.67389 29.6713 5.66665ZM33.8817 14.9839C29.7218 15.8053 23.9775 15.6366 17.0897 12.1927C10.6505 8.97309 5.52537 9.01364 2.06882 9.78179C1.8904 9.8214 1.71619 9.86305 1.54618 9.9064C1.09363 10.8906 0.732389 11.9256 0.473197 13.0003C0.750028 12.9264 1.03609 12.8561 1.33124 12.7904C5.52464 11.8586 11.4496 11.8991 18.6102 15.4794C25.0496 18.6991 30.1746 18.6585 33.6313 17.8904C33.7497 17.8641 33.8664 17.8369 33.9811 17.8088C33.9937 17.5408 34 17.2711 34 17C34 16.3179 33.9599 15.6451 33.8817 14.9839ZM33.4261 21.3964C29.3065 22.1167 23.7294 21.8402 17.0897 18.5205C10.6505 15.3008 5.52537 15.3414 2.06882 16.1095C1.30156 16.28 0.611354 16.4876 0.0024905 16.7068C0.000830451 16.8043 0 16.9021 0 17C0 26.3888 7.61115 34 17 34C24.8685 34 31.4885 28.6543 33.4261 21.3964Z" fill="#6157EB"/>
</svg>
