<svg width="29" height="29" viewBox="0 0 29 29" fill="none" xmlns="http://www.w3.org/2000/svg">
<path fill-rule="evenodd" clip-rule="evenodd" d="M2.70022 0.601807H11.5027C12.6575 0.601807 13.6013 1.5444 13.6013 2.70046V11.5029C13.6013 12.6578 12.6587 13.6016 11.5027 13.6016H2.70022C1.54536 13.6016 0.601562 12.659 0.601562 11.5029V2.70046C0.601562 1.5456 1.54536 0.601807 2.70022 0.601807ZM21.4346 1.26859C21.4346 0.390741 22.7682 0.390741 22.7682 1.26859V6.43487H27.9344C28.8123 6.43487 28.8123 7.76844 27.9344 7.76844H22.7682V12.9347C22.7682 13.8126 21.4346 13.8126 21.4346 12.9347V7.76844H16.2683C15.3905 7.76844 15.3905 6.43487 16.2683 6.43487H21.4346V1.26859ZM17.7002 15.602H26.5026C27.6575 15.602 28.6013 16.5446 28.6013 17.7007V26.5032C28.6013 27.6592 27.6587 28.6018 26.5026 28.6018H17.7002C16.5453 28.6018 15.6015 27.6592 15.6015 26.5032V17.7007C15.6015 16.5446 16.5441 15.602 17.7002 15.602ZM26.5026 16.9356H17.7002C17.2804 16.9356 16.9351 17.281 16.9351 17.7007V26.5032C16.9351 26.9229 17.2804 27.2683 17.7002 27.2683H26.5026C26.9224 27.2683 27.2677 26.9229 27.2677 26.5032V17.7007C27.2677 17.281 26.9224 16.9356 26.5026 16.9356ZM2.70022 15.602H11.5027C12.6575 15.602 13.6013 16.5446 13.6013 17.7007V26.5032C13.6013 27.6592 12.6587 28.6018 11.5027 28.6018H2.70022C1.54536 28.6018 0.601562 27.6592 0.601562 26.5032V17.7007C0.601562 16.5446 1.54536 15.602 2.70022 15.602ZM11.5027 16.9356H2.70022C2.28048 16.9356 1.9351 17.281 1.9351 17.7007V26.5032C1.9351 26.9229 2.28048 27.2683 2.70022 27.2683H11.5027C11.9224 27.2683 12.2678 26.9229 12.2678 26.5032V17.7007C12.2678 17.281 11.9224 16.9356 11.5027 16.9356ZM11.5027 1.93565H2.70022C2.28048 1.93565 1.9351 2.28103 1.9351 2.70077V11.5032C1.9351 11.923 2.28048 12.2683 2.70022 12.2683H11.5027C11.9224 12.2683 12.2678 11.923 12.2678 11.5032V2.70077C12.2678 2.28103 11.9224 1.93565 11.5027 1.93565Z" fill="#6157EB" stroke="#6157EB" stroke-width="0.4"/>
</svg>