<svg width="32" height="32" viewBox="0 0 32 32" fill="none" xmlns="http://www.w3.org/2000/svg">
<path fill-rule="evenodd" clip-rule="evenodd" d="M11.3915 26.4804L8.34461 21.6922C7.95984 21.0869 7.93633 20.3187 8.28461 19.6913L15.658 6.41833C15.7272 6.29442 15.8576 6.21747 15.9998 6.21747C16.1419 6.21747 16.2737 6.29442 16.3415 6.41833L23.7149 19.6913C24.0632 20.3187 24.041 21.0869 23.6549 21.6922L20.608 26.4804L21.8406 29.7674C21.9449 30.0478 21.9058 30.3622 21.7362 30.6074C21.5667 30.8539 21.2849 31 20.9862 31H11.0133C10.7133 31 10.4342 30.8539 10.2633 30.6074C10.0924 30.3609 10.0533 30.0465 10.159 29.7674L11.3915 26.4804ZM19.9584 26.0435L22.9949 21.2722C23.2258 20.9096 23.2401 20.4479 23.0301 20.0722C23.0301 20.0722 17.8688 10.7815 16.3896 8.11921V16.6834C17.5714 16.8712 18.4766 17.8964 18.4766 19.1303C18.4766 20.4986 17.3666 21.6086 15.9983 21.6086C14.63 21.6086 13.5201 20.4986 13.5201 19.1303C13.5201 17.8964 14.4253 16.8712 15.607 16.6834V8.11921L8.96651 20.0722C8.75781 20.4492 8.77085 20.9096 9.00303 21.2722L12.0395 26.0435H19.9584ZM12.0971 26.8261L10.8919 30.0413C10.8762 30.0817 10.8828 30.1261 10.9062 30.1613C10.931 30.1965 10.9714 30.2174 11.0132 30.2174H20.9861C21.0292 30.2174 21.0696 30.1965 21.0931 30.1613C21.1165 30.1261 21.1231 30.0817 21.1074 30.0413L19.9022 26.8261H12.0971ZM15.9999 17.4349C15.0633 17.4349 14.3042 18.194 14.3042 19.1305C14.3042 20.067 15.0633 20.8261 15.9999 20.8261C16.9364 20.8261 17.6955 20.067 17.6955 19.1305C17.6955 18.194 16.9364 17.4349 15.9999 17.4349ZM3.81477 3.34782C3.64521 3.95043 3.09085 4.39129 2.43478 4.39129C1.64305 4.39129 1 3.74825 1 2.95651C1 2.16478 1.64305 1.52173 2.43478 1.52173C3.09085 1.52173 3.64521 1.96259 3.81477 2.5652H14.0435V1.91304C14.0435 1.67043 14.14 1.43825 14.3109 1.26739C14.4817 1.09522 14.7139 1 14.9565 1H17.0435C17.2861 1 17.5182 1.09652 17.6891 1.26739C17.86 1.43826 17.9565 1.67042 17.9565 1.91304V2.5652H28.1852C28.3561 1.96259 28.9091 1.52173 29.5652 1.52173C30.3569 1.52173 31 2.16478 31 2.95651C31 3.74825 30.3569 4.39129 29.5652 4.39129C28.9091 4.39129 28.3547 3.95043 28.1852 3.34782H20.5259C25.1316 4.99781 28.5775 9.09209 29.2964 14.0657C29.9682 14.1857 30.4782 14.7727 30.4782 15.4783C30.4782 16.27 29.8351 16.9131 29.0434 16.9131C28.2517 16.9131 27.6086 16.27 27.6086 15.4783C27.6086 14.8731 27.9856 14.354 28.5165 14.144C27.7117 8.67885 23.4073 4.34568 17.9565 3.49922V4.00008C17.9565 4.24269 17.86 4.47487 17.6891 4.64573C17.517 4.81791 17.2848 4.91312 17.0435 4.91312H14.9565C14.7139 4.91312 14.4818 4.8166 14.3109 4.64573C14.14 4.47487 14.0435 4.2427 14.0435 4.00008V3.49922C8.59274 4.34705 4.28829 8.67885 3.48356 14.144C4.01442 14.354 4.3914 14.8731 4.3914 15.4783C4.3914 16.27 3.74836 16.9131 2.95662 16.9131C2.16488 16.9131 1.52184 16.27 1.52184 15.4783C1.52184 14.7727 2.03312 14.1857 2.70358 14.0657C3.42226 9.09209 6.86845 4.99801 11.4741 3.34782H3.81477ZM3.08694 2.95651C3.08694 2.59652 2.79477 2.30435 2.43478 2.30435C2.07479 2.30435 1.78262 2.59652 1.78262 2.95651C1.78262 3.3165 2.07479 3.60867 2.43478 3.60867C2.79477 3.60867 3.08694 3.3165 3.08694 2.95651ZM28.913 2.95651C28.913 3.3165 29.2051 3.60867 29.5651 3.60867C29.9251 3.60867 30.2173 3.3165 30.2173 2.95651C30.2173 2.59652 29.9251 2.30435 29.5651 2.30435C29.2051 2.30435 28.913 2.59652 28.913 2.95651ZM17.0434 1.78261H14.9565C14.9226 1.78261 14.8887 1.79566 14.8639 1.82044C14.8391 1.84522 14.826 1.87783 14.826 1.91305V3.99999C14.826 4.0339 14.8391 4.06781 14.8639 4.0926C14.8887 4.11738 14.9213 4.13042 14.9565 4.13042H17.0434C17.0773 4.13042 17.1112 4.11738 17.136 4.0926C17.1608 4.06781 17.1739 4.0352 17.1739 3.99999V1.91305C17.1739 1.87913 17.1608 1.84522 17.136 1.82044C17.1112 1.79566 17.0786 1.78261 17.0434 1.78261ZM29.0435 14.8258C28.6835 14.8258 28.3914 15.118 28.3914 15.478C28.3914 15.838 28.6835 16.1302 29.0435 16.1302C29.4035 16.1302 29.6957 15.838 29.6957 15.478C29.6957 15.118 29.4035 14.8258 29.0435 14.8258ZM2.95672 14.8258C2.59673 14.8258 2.30456 15.118 2.30456 15.478C2.30456 15.838 2.59673 16.1302 2.95672 16.1302C3.31671 16.1302 3.60888 15.838 3.60888 15.478C3.60888 15.118 3.31671 14.8258 2.95672 14.8258Z" fill="#6157EB" stroke="#6157EB" stroke-width="0.7"/>
</svg>
