<svg width="28" height="28" viewBox="0 0 28 28" fill="none" xmlns="http://www.w3.org/2000/svg">
<path d="M8.64411 2.55943C7.97265 3.77992 7.41947 5.22198 7.00254 6.80833C5.95264 6.6033 5.00046 6.35702 4.16111 6.0818C5.36096 4.59159 6.89246 3.38071 8.64285 2.55926L8.64411 2.55943ZM19.3548 2.55943L19.3561 2.56081C21.1078 3.38089 22.6379 4.59177 23.8379 6.08061L23.8365 6.08198C22.9958 6.35718 22.045 6.60349 20.9951 6.80851C20.5781 5.22336 20.025 3.7813 19.3549 2.56067L19.3548 2.55943ZM14.6846 1.38847H14.6859C15.5446 1.43525 16.3771 1.56735 17.1806 1.77651H17.182C18.1837 3.01215 19.052 4.81333 19.6519 7.03849L19.6505 7.03987C18.1507 7.26278 16.4885 7.40311 14.6873 7.43203L14.6846 1.38847ZM13.3113 7.43175V7.43312C11.5088 7.40285 9.8466 7.2625 8.34808 7.03958L8.34533 7.03821C8.94525 4.81323 9.81352 3.01335 10.8152 1.77623C11.6188 1.5657 12.4526 1.43498 13.3099 1.38819L13.3113 7.43175ZM3.32704 7.24323L3.32842 7.24461C4.34253 7.59961 5.47636 7.89684 6.69273 8.13624C6.35836 9.76954 6.1616 11.5212 6.12032 13.314L1.38672 13.3126C1.50643 11.0863 2.20148 9.01683 3.32704 7.24323ZM8.0314 8.36879H8.03278C9.70736 8.62473 11.4989 8.77195 13.3152 8.80224L13.3138 13.3143H7.4921C7.532 11.5324 7.72052 9.87154 8.0301 8.36897L8.0314 8.36879ZM19.9668 8.36742V8.36879C20.2764 9.87137 20.4663 11.5322 20.5048 13.3141H14.6845L14.6818 8.80207C16.4981 8.77179 18.2896 8.62456 19.9642 8.36862L19.9668 8.36742ZM24.6701 7.24323H24.6715C25.7957 9.0169 26.492 11.0906 26.6103 13.3154L21.8767 13.314C21.8368 11.5211 21.64 9.76963 21.3043 8.13623C22.5207 7.89681 23.656 7.59827 24.6701 7.24323ZM13.3113 19.198V19.1994C11.4964 19.2283 9.70496 19.3755 8.03175 19.6315C7.72215 18.1289 7.52951 16.4681 7.49097 14.6862L13.3141 14.6848L13.3113 19.198ZM20.5079 14.686C20.468 16.4679 20.2767 18.1287 19.9671 19.6313C18.2925 19.3754 16.5024 19.2282 14.6861 19.1979L14.6847 14.6858L20.5079 14.686ZM6.12324 14.6901C6.16314 16.4817 6.35853 18.2292 6.69428 19.8651H6.6929C5.47791 20.1032 4.34132 20.4017 3.32722 20.7567C2.20166 18.9831 1.50814 16.9151 1.38982 14.6885L6.12324 14.6901ZM26.6104 14.686C26.492 16.911 25.7958 18.9846 24.6702 20.7568C23.6561 20.4004 22.5195 20.1032 21.3045 19.8651C21.6403 18.2291 21.8343 16.4816 21.8742 14.6888L26.6104 14.686ZM20.9951 21.1918C22.0463 21.3968 22.9958 21.6445 23.8365 21.9211C22.6366 23.4099 21.1051 24.6208 19.3534 25.4409V25.4422C20.0248 24.219 20.5781 22.7768 20.9951 21.1918ZM7.00388 21.1918C7.41943 22.7769 7.97395 24.2204 8.64404 25.4421C6.89239 24.6206 5.36093 23.4098 4.1609 21.9196C5.00163 21.643 5.95243 21.3967 7.00233 21.1917L7.00388 21.1918ZM14.6872 20.5685H14.6886C16.4912 20.596 18.1534 20.7377 19.6533 20.9607V20.9634C19.0534 23.1884 18.1824 24.9897 17.1806 26.2254L17.1793 26.2268C16.3757 26.4345 15.5419 26.5653 14.6846 26.6121L14.6872 20.5685ZM13.3126 26.6118C12.4568 26.565 11.6215 26.4356 10.818 26.2265H10.8166C9.81486 24.9895 8.94388 23.1883 8.34396 20.9634V20.9607C9.84378 20.7378 11.5087 20.5974 13.3114 20.5685L13.3126 26.6118ZM13.9979 0C6.26626 0 0 6.26766 0 13.9993C0 21.7309 6.26626 28 13.9979 28C21.7295 27.9986 27.9986 21.7309 27.9986 13.9993C27.9986 6.26766 21.7309 0 13.9993 0H13.9979Z" fill="#6157EB"/>
</svg>
