<svg width="27" height="32" viewBox="0 0 27 32" fill="none" xmlns="http://www.w3.org/2000/svg">
<path fill-rule="evenodd" clip-rule="evenodd" d="M22.7831 27.5856H16.3694V27.9789H22.7831V27.5856ZM6.36592 21.3118C6.17296 21.3118 6.01585 21.1547 6.01585 20.9617C6.01585 20.7688 6.17295 20.6117 6.36592 20.6117H12.0931C12.2861 20.6117 12.4432 20.7688 12.4432 20.9617C12.4432 21.1547 12.2861 21.3118 12.0931 21.3118H6.36592ZM6.36592 18.1119C6.17296 18.1119 6.01585 17.9548 6.01585 17.7618C6.01585 17.5689 6.17295 17.4118 6.36592 17.4118H13.1729C13.3659 17.4118 13.523 17.5689 13.523 17.7618C13.523 17.9548 13.3659 18.1119 13.1729 18.1119H6.36592ZM6.36592 14.9155C6.17296 14.9155 6.01585 14.7584 6.01585 14.5654C6.01585 14.3725 6.17295 14.2154 6.36592 14.2154H16.6192C16.8122 14.2154 16.9693 14.3725 16.9693 14.5654C16.9693 14.7584 16.8122 14.9155 16.6192 14.9155H6.36592ZM6.36592 11.7156C6.17296 11.7156 6.01585 11.5585 6.01585 11.3655C6.01585 11.1726 6.17295 11.0155 6.36592 11.0155H16.6192C16.8122 11.0155 16.9693 11.1726 16.9693 11.3655C16.9693 11.5585 16.8122 11.7156 16.6192 11.7156H6.36592ZM6.36592 8.51572C6.17296 8.51572 6.01585 8.35862 6.01585 8.16564C6.01585 7.97266 6.17295 7.81557 6.36592 7.81557H16.6192C16.8122 7.81557 16.9693 7.97266 16.9693 8.16564C16.9693 8.35862 16.8122 8.51572 16.6192 8.51572H6.36592ZM1.71001 8.27946H3.44672V7.64983H1.71001V8.27946ZM3.44672 8.98331H1.71001L1.70382 13.967H3.44054L3.44672 8.98331ZM1.71001 6.94972H3.44672V6.18032H1.71001V6.94972ZM3.41331 14.6697H1.7298L2.28273 15.8535L2.5796 16.3705L2.87276 15.8633L3.41331 14.6734L3.41331 14.6697ZM4.10972 14.8293L3.5098 16.1565C3.4999 16.1763 3.49001 16.1936 3.48011 16.2097L2.92719 17.1659V27.0455L15.1435 26.8921L14.9233 26.6719C13.643 25.3917 13.0035 23.7057 13.0035 22.0185C13.0035 20.3313 13.643 18.6454 14.9233 17.3652C16.1565 16.1319 17.7634 15.4949 19.3864 15.4491L19.3295 5.93934H15.0459C14.853 5.93934 14.6959 5.78224 14.6959 5.58926V1.70284H2.92608V5.47558H3.79937C3.99234 5.47558 4.14945 5.63268 4.14945 5.82565V5.85534L4.13955 14.6824C4.13955 14.7318 4.12966 14.7826 4.10986 14.8259L4.10972 14.8293ZM2.22335 17.1498L1.66672 16.1862C1.66672 16.1862 1.65682 16.1701 1.65311 16.159L1.0334 14.8317C1.0099 14.7822 1 14.7278 1 14.6783L1.0099 5.82533C1.0099 5.63237 1.16699 5.47526 1.35997 5.47526H2.22339V1.35007C2.22339 1.1571 2.38048 1 2.57346 1H15.0472C15.1511 1 15.2402 1.04329 15.3032 1.1138L19.917 5.46667C19.9937 5.53966 20.0308 5.63985 20.0271 5.74004L20.084 15.4737C20.5368 15.5071 20.9846 15.59 21.4237 15.7174C21.4002 15.6506 21.394 15.5776 21.4138 15.5071L21.801 14.0672C21.8505 13.8805 22.0447 13.7667 22.2315 13.8174C22.4182 13.8668 22.532 14.0611 22.4813 14.2478L22.0941 15.6877C22.0706 15.7743 22.0174 15.8473 21.9445 15.8905C22.3081 16.0303 22.6607 16.201 22.9984 16.4076C22.9922 16.3371 23.0082 16.2678 23.0454 16.2047L23.7888 14.9146C23.8853 14.7476 24.0993 14.6907 24.2687 14.7884C24.4357 14.8849 24.4926 15.0989 24.3949 15.2683L23.6515 16.5585C23.6045 16.6352 23.5352 16.6921 23.4548 16.7156C23.7244 16.9123 23.9818 17.1325 24.2242 17.3761L24.338 17.4899C24.3516 17.4231 24.3813 17.3563 24.4345 17.3031L25.4884 16.2493C25.6244 16.1132 25.8483 16.1132 25.9856 16.2493C26.1217 16.3853 26.1217 16.6092 25.9856 16.7465L24.9317 17.8004C24.8686 17.8635 24.7845 17.9006 24.6979 17.9043C25.6616 19.1004 26.1452 20.5638 26.1452 22.0308C26.1452 23.718 25.5057 25.4039 24.2254 26.6841L23.482 27.4276V28.3405C23.482 28.5334 23.3249 28.6905 23.1319 28.6905H22.6582V29.5168C22.6582 29.7098 22.5011 29.8669 22.3081 29.8669H21.1886V30.6499C21.1886 30.8429 21.0315 31 20.8385 31H18.3151C18.1221 31 17.965 30.8429 17.965 30.6499V29.8669H16.8456C16.6526 29.8669 16.4955 29.7098 16.4955 29.5168V28.6905H16.0217C15.8287 28.6905 15.6716 28.5334 15.6716 28.3405V27.597L2.582 27.7603C2.38903 27.7603 2.22822 27.6069 2.22822 27.4139V27.4102V17.1569L2.22335 17.1498ZM15.4032 2.1665L18.6627 5.24284H15.4032V2.1665ZM18.7529 21.123C18.8296 21.123 18.9001 21.1527 18.9496 21.2059C18.9991 21.2554 19.0325 21.3259 19.0325 21.4025C19.0325 21.4792 19.0028 21.5497 18.9496 21.5992C18.9001 21.6487 18.8296 21.6821 18.7529 21.6821C18.6762 21.6821 18.6057 21.6524 18.5562 21.5992C18.5068 21.5497 18.4734 21.4792 18.4734 21.4025C18.4734 21.3259 18.5031 21.2554 18.5562 21.2059C18.6057 21.1564 18.6762 21.123 18.7529 21.123ZM18.0565 20.7098C17.8796 20.8867 17.7695 21.1329 17.7695 21.4062C17.7695 21.6796 17.8796 21.9233 18.0565 22.1027C18.153 22.1991 18.2693 22.2758 18.4004 22.3265V26.8859H16.1231L15.4193 26.182C14.2763 25.0391 13.7023 23.5324 13.7023 22.0258C13.7023 20.5192 14.2726 19.0126 15.4156 17.8696C16.5585 16.7266 18.0652 16.1564 19.5718 16.1564C21.0784 16.1564 22.585 16.7266 23.728 17.8696C24.871 19.0126 25.4412 20.5192 25.4412 22.0258C25.4412 23.5324 24.8685 25.0391 23.7243 26.182L23.0205 26.8859H21.3035V22.3265C21.4334 22.2771 21.5497 22.2004 21.6474 22.1027C21.8243 21.9258 21.9344 21.6796 21.9344 21.4062C21.9344 21.1329 21.8243 20.8892 21.6474 20.7098C21.4705 20.533 21.2244 20.4229 20.951 20.4229C20.6776 20.4229 20.4339 20.533 20.2546 20.7098C20.0777 20.8867 19.9676 21.1329 19.9676 21.4062C19.9676 21.6796 20.0777 21.9233 20.2546 22.1027C20.3511 22.1991 20.4673 22.2758 20.5984 22.3265V26.8859H19.0881V22.3265C19.218 22.2771 19.3343 22.2004 19.432 22.1027C19.6089 21.9258 19.719 21.6796 19.719 21.4062C19.719 21.1329 19.6089 20.8892 19.432 20.7098C19.2551 20.533 19.0089 20.4229 18.7356 20.4229C18.4622 20.4229 18.2185 20.533 18.0392 20.7098H18.0565ZM20.9634 21.123C20.8867 21.123 20.8162 21.1527 20.7667 21.2059C20.7172 21.2554 20.6838 21.3259 20.6838 21.4025C20.6838 21.4792 20.7135 21.5497 20.7667 21.5992C20.8162 21.6487 20.8867 21.6821 20.9634 21.6821C21.0401 21.6821 21.1106 21.6524 21.1601 21.5992C21.2096 21.5497 21.243 21.4792 21.243 21.4025C21.243 21.3259 21.2133 21.2554 21.1601 21.2059C21.1106 21.1564 21.0401 21.123 20.9634 21.123ZM18.6701 29.8623V30.2952H20.4896V29.8623H18.6701ZM17.1956 28.686V29.1622H21.9592V28.686H17.1956Z" fill="#6157EB" stroke="#6157EB" stroke-width="0.6"/>
</svg>
