<svg width="29" height="36" viewBox="0 0 29 36" fill="none" xmlns="http://www.w3.org/2000/svg">
<path fill-rule="evenodd" clip-rule="evenodd" d="M6.29709 6.4604C8.44432 4.31822 11.3536 3.11518 14.3866 3.11518C17.4197 3.11518 20.3289 4.31822 22.4762 6.4604C26.7496 10.7342 26.7235 17.567 22.4131 22.7086L14.3868 32.2837L6.36018 22.7086C2.05012 17.567 2.02406 10.7331 6.29709 6.4604ZM4.73158 24.0735L13.5716 34.6199C13.6713 34.7389 13.7959 34.8346 13.9365 34.9003C14.0772 34.966 14.2306 35 14.3859 35C14.5411 35 14.6945 34.966 14.8352 34.9003C14.9759 34.8346 15.1005 34.7389 15.2002 34.6199L24.0402 24.0735C26.3473 21.3734 27.6625 17.966 27.7681 14.416C27.81 12.6651 27.4958 10.9238 26.8444 9.29802C26.1931 7.67219 25.2182 6.19564 23.979 4.95798C21.4302 2.42299 17.9816 1 14.3868 1C10.792 1 7.34344 2.42299 4.79467 4.95798C3.55501 6.19543 2.57973 7.67189 1.92805 9.29774C1.27638 10.9236 0.961889 12.6649 1.00368 14.416C1.10919 17.966 2.42448 21.3734 4.73158 24.0735ZM14.3868 10.0406C13.5126 10.0406 12.6581 10.2998 11.9312 10.7855C11.2043 11.2712 10.6378 11.9615 10.3033 12.7691C9.96873 13.5768 9.8812 14.4655 10.0517 15.3229C10.2223 16.1803 10.6433 16.9678 11.2614 17.586C11.8796 18.2041 12.6671 18.6251 13.5245 18.7956C14.3819 18.9662 15.2706 18.8787 16.0783 18.5441C16.8859 18.2096 17.5762 17.6431 18.0619 16.9162C18.5476 16.1893 18.8068 15.3348 18.8068 14.4606C18.8052 13.2888 18.339 12.1655 17.5105 11.3369C16.6819 10.5084 15.5586 10.0422 14.3868 10.0406ZM14.3868 21.0078C15.6815 21.0078 16.9471 20.6239 18.0236 19.9046C19.1001 19.1853 19.9392 18.163 20.4346 16.9668C20.9301 15.7707 21.0597 14.4545 20.8072 13.1846C20.5546 11.9148 19.9311 10.7484 19.0156 9.83291C18.1001 8.91742 16.9337 8.29396 15.6639 8.04138C14.3941 7.78879 13.0779 7.91843 11.8817 8.41389C10.6856 8.90935 9.66321 9.74838 8.94391 10.8249C8.22461 11.9014 7.84069 13.167 7.84069 14.4617C7.84269 16.1972 8.53301 17.8611 9.76021 19.0883C10.9874 20.3155 12.6513 21.0058 14.3868 21.0078Z" fill="#6157EB" stroke="#6157EB" stroke-width="0.6"/>
</svg>
