<svg width="36" height="26" viewBox="0 0 36 26" fill="none" xmlns="http://www.w3.org/2000/svg">
<path fill-rule="evenodd" clip-rule="evenodd" d="M3.57936 1H32.7724C33.3882 1 33.9548 1.21768 34.3976 1.57998L34.408 1.58892C34.4721 1.6426 34.5348 1.69776 34.5944 1.7574C35.0611 2.22409 35.3518 2.86968 35.3518 3.57936V22.4207C35.3518 23.1304 35.0611 23.776 34.5944 24.2426C34.584 24.253 34.5735 24.2635 34.5631 24.2724L34.5616 24.2739C34.0979 24.7227 33.4657 25 32.7709 25H3.57939C2.88609 25 2.2539 24.7227 1.79022 24.2754L1.75742 24.2426C1.29073 23.7759 1 23.1303 1 22.4206V3.57935C1 2.86964 1.29074 2.22405 1.75742 1.7574C1.81706 1.69776 1.87968 1.6411 1.94529 1.58743L1.95423 1.57998C2.39856 1.21767 2.9651 1 3.58087 1H3.57936ZM3.97895 2.59981L18.1774 16.7982L32.3758 2.59981H3.97895ZM12.0108 12.8936L2.6041 3.48685C2.60112 3.51816 2.59963 3.54799 2.59963 3.58078V22.306L12.0105 12.8951L12.0108 12.8936ZM23.2111 14.0237L18.7411 18.4937C18.4295 18.8053 17.9226 18.8053 17.611 18.4937L13.141 14.0237L3.76295 23.4018H32.5865L23.2085 14.0237H23.2111ZM33.7476 3.4872L24.3409 12.8939L33.7518 22.3048V3.57957C33.7518 3.54826 33.7503 3.51695 33.7473 3.48564L33.7476 3.4872Z" fill="#6157EB" stroke="#6157EB" stroke-width="0.6"/>
</svg>
