<svg width="32" height="32" viewBox="0 0 32 32" fill="none" xmlns="http://www.w3.org/2000/svg">
<path fill-rule="evenodd" clip-rule="evenodd" d="M8.92031 2.4159L11.7039 5.19952C13.1496 6.64519 13.1073 8.25125 11.9554 9.73524C8.54175 14.134 17.8664 23.4583 22.2651 20.046C23.7493 18.8941 25.3554 18.8518 26.8009 20.2974L29.5845 23.0811C32.5002 25.9968 30.2105 28.0365 28.9341 29.3139V29.3165C20.3999 37.8493 -5.8489 11.6002 2.68331 3.06698H2.68716C3.96351 1.78934 6.00455 -0.500319 8.92 2.41532L8.92031 2.4159ZM10.5892 6.31421L7.80556 3.53058C6.02122 1.74625 4.66149 3.31636 3.79691 4.17968L3.79819 4.18096C-3.21588 11.195 20.8052 35.2164 27.8182 28.202L27.8195 28.2033C28.6841 27.3387 30.253 25.979 28.4686 24.1946L25.685 21.411C24.823 20.549 24.111 20.6003 23.2246 21.2891C17.3599 25.8403 6.15987 14.6406 10.7114 8.77454C11.3989 7.88816 11.4512 7.17623 10.5892 6.31421Z" fill="#6157EB" stroke="#6157EB" stroke-width="0.6"/>
</svg>
