<svg width="19" height="14" viewBox="0 0 19 14" fill="none" xmlns="http://www.w3.org/2000/svg">
<path fill-rule="evenodd" clip-rule="evenodd" d="M2.28968 1H16.8862C17.1941 1 17.4774 1.10884 17.6988 1.28999L17.704 1.29446C17.7361 1.3213 17.7674 1.34888 17.7972 1.3787C18.0305 1.61205 18.1759 1.93484 18.1759 2.28968V11.7103C18.1759 12.0652 18.0305 12.388 17.7972 12.6213C17.792 12.6265 17.7868 12.6317 17.7815 12.6362L17.7808 12.637C17.549 12.8614 17.2329 13 16.8855 13H2.28969C1.94305 13 1.62695 12.8613 1.39511 12.6377L1.37871 12.6213C1.14537 12.388 1 12.0652 1 11.7103V2.28968C1 1.93482 1.14537 1.61203 1.37871 1.3787C1.40853 1.34888 1.43984 1.32055 1.47264 1.29372L1.47712 1.28999C1.69928 1.10883 1.98255 1 2.29044 1H2.28968ZM2.48947 1.7999L9.58869 8.89912L16.6879 1.7999H2.48947ZM6.50541 6.94678L1.80205 2.24343C1.80056 2.25908 1.79982 2.27399 1.79982 2.29039V11.653L6.50527 6.94757L6.50541 6.94678ZM12.1055 7.51186L9.87057 9.74683C9.71476 9.90264 9.4613 9.90264 9.3055 9.74683L7.07052 7.51186L2.38147 12.2009H16.7933L12.1042 7.51186H12.1055ZM17.3738 2.2436L12.6704 6.94696L17.3759 11.6524V2.28978C17.3759 2.27413 17.3752 2.25847 17.3737 2.24282L17.3738 2.2436Z" fill="white" fill-opacity="0.5" stroke="white" stroke-opacity="0.5" stroke-width="0.3"/>
</svg>
