<svg width="22" height="20" viewBox="0 0 22 20" fill="none" xmlns="http://www.w3.org/2000/svg">
<path d="M4.36168 15.6169L4.84507 18.5245C4.89208 18.8208 5.0145 19.1001 5.20058 19.3355C5.38667 19.5708 5.63015 19.7544 5.90765 19.8685C6.18515 19.9826 6.48733 20.0235 6.78516 19.9871C7.08299 19.9507 7.36646 19.8384 7.60834 19.6608L9.98922 17.9329L12.3845 19.6536C12.6796 19.8666 13.0343 19.9815 13.3982 19.9819C13.6297 19.9823 13.8589 19.9369 14.0728 19.8484C14.3472 19.7356 14.5881 19.5544 14.7726 19.322C14.957 19.0896 15.0787 18.8138 15.1262 18.5209L15.6095 15.6133L18.5171 15.1299C18.8104 15.082 19.0866 14.9599 19.3195 14.7754C19.5525 14.5908 19.7345 14.3499 19.8483 14.0754C19.962 13.8008 20.0039 13.5018 19.9698 13.2066C19.9357 12.9113 19.8268 12.6297 19.6534 12.3883L17.9111 9.96053L16.4465 11.0175L18.1347 13.3695L15.2704 13.8457C14.909 13.9045 14.5752 14.0755 14.3162 14.3344C14.0573 14.5934 13.8863 14.9272 13.8275 15.2887L13.3802 18.1421L11.0101 16.443C10.7115 16.2406 10.359 16.1325 9.99824 16.1325C9.63748 16.1325 9.28501 16.2406 8.98637 16.443L6.63434 18.1313L6.15817 15.267C6.09936 14.9056 5.92839 14.5717 5.66944 14.3128C5.41049 14.0538 5.07667 13.8829 4.71521 13.8241L1.83651 13.3695L3.53559 10.9995C3.73534 10.7045 3.8421 10.3564 3.8421 10.0002C3.8421 9.64398 3.73534 9.29593 3.53559 9.00097L1.83651 6.62369L4.72242 6.14751C5.08388 6.08871 5.4177 5.91774 5.67665 5.65879C5.9356 5.39984 6.10658 5.06602 6.16538 4.70456L6.64156 1.84028L8.99719 3.53215C9.29454 3.74457 9.65084 3.85876 10.0163 3.85876C10.3817 3.85876 10.738 3.74457 11.0354 3.53215L13.3802 1.85111L13.5317 2.75656L15.3101 2.46076L15.1442 1.47233C15.0953 1.17956 14.9728 0.904044 14.7881 0.671695C14.6034 0.439346 14.3626 0.257808 14.0884 0.14416C13.8142 0.0305116 13.5156 -0.0115092 13.2207 0.022051C12.9257 0.0556112 12.6442 0.163649 12.4026 0.335999L9.98922 2.06033L7.5867 0.325177C7.34511 0.152633 7.06352 0.0445372 6.76854 0.0111063C6.47355 -0.0223247 6.17491 0.0200129 5.90084 0.134118C5.62678 0.248223 5.38633 0.430328 5.20222 0.663222C5.01812 0.896115 4.89644 1.17211 4.84868 1.46511L4.36168 4.37628L1.47577 4.85967C1.18241 4.90824 0.906271 5.03078 0.673424 5.21571C0.440577 5.40065 0.258705 5.64187 0.144981 5.91662C0.0312561 6.19136 -0.0105688 6.49056 0.023455 6.78596C0.0574788 7.08135 0.166229 7.36321 0.339437 7.6049L2.0277 9.95332L2.05656 9.99661L0.3214 12.3991C0.149549 12.6417 0.042457 12.924 0.0102686 13.2195C-0.0219199 13.515 0.0218607 13.8138 0.137463 14.0877C0.253066 14.3615 0.436663 14.6013 0.670863 14.7843C0.905063 14.9673 1.18211 15.0875 1.47577 15.1335L4.36168 15.6169Z" fill="#6157EB"/>
<path d="M11.2878 10.2383L8.04118 6.99166L6.76416 8.26867L10.6493 12.1611C10.7333 12.2467 10.8335 12.3147 10.944 12.3611C11.0546 12.4076 11.1733 12.4315 11.2932 12.4315C11.4132 12.4315 11.5319 12.4076 11.6424 12.3611C11.753 12.3147 11.8532 12.2467 11.9372 12.1611L21.4607 2.63753L20.1729 1.33887L11.2878 10.2383Z" fill="#6157EB"/>
</svg>
